<?xml version="1.0" encoding="utf-8"?>
<!-- Generator: Adobe Illustrator 18.0.0, SVG Export Plug-In . SVG Version: 6.00 Build 0)  -->
<!DOCTYPE svg PUBLIC "-//W3C//DTD SVG 1.1//EN" "http://www.w3.org/Graphics/SVG/1.1/DTD/svg11.dtd">
<svg version="1.1" id="Layer_1" xmlns="http://www.w3.org/2000/svg" xmlns:xlink="http://www.w3.org/1999/xlink" x="0px" y="0px"
	 viewBox="0 0 60 60" enable-background="new 0 0 60 60" xml:space="preserve">
<path fill="#FFFFFF" d="M60,30c0,16.6-13.5,30-30,30C13.4,60,0,46.6,0,30C0,13.5,13.4,0,30,0C46.5,0,60,13.5,60,30z M32.5,19.7
	c0-2.1,0.4-3.4,3.1-3.4h4.1L40,9.2c0,0-2.1-0.4-5.7-0.4c-7.4,0-10.6,4.4-10.6,9.4c0,3.3,0,6.8,0,6.8h-5v7.5h5v18.7h8.7V32.5h7
	l0.5-7.4h-7.5V19.7z"/>
</svg>
