<?xml version="1.0" encoding="utf-8"?>
<!-- Generator: Adobe Illustrator 18.0.0, SVG Export Plug-In . SVG Version: 6.00 Build 0)  -->
<!DOCTYPE svg PUBLIC "-//W3C//DTD SVG 1.1//EN" "http://www.w3.org/Graphics/SVG/1.1/DTD/svg11.dtd">
<svg version="1.1" id="Layer_1" xmlns="http://www.w3.org/2000/svg" xmlns:xlink="http://www.w3.org/1999/xlink" x="0px" y="0px"
	 viewBox="0 0 646.4 245.9" enable-background="new 0 0 646.4 245.9" xml:space="preserve">
<path fill="#FFFFFF" d="M27.6,213.6c1,0.4,1.5,1.2,1.5,2.5v2.1c0,1.8-0.5,2.8-1.5,3.1c-1,0.3-2.8,0.5-5.4,0.5V213
	C24.8,213,26.6,213.2,27.6,213.6z M0,245.9h22.2V228c3.1,0,5.1,0.3,5.8,0.8c0.7,0.5,1.1,1.8,1.1,3.9v13.2h20.7v-10.4
	c0-3.2-0.2-5.2-0.6-5.9c-0.4-0.7-1.3-1.5-2.8-2.3c-1.5-0.8-4.5-1.5-8.9-2c4.9-0.2,8.1-0.9,9.8-1.9c1.7-1.1,2.5-3.1,2.5-6.2
	c0-3.4-1.2-5.8-3.5-7.4c-2.3-1.5-5.4-2.5-9.1-2.9c-3.7-0.4-10.9-0.6-21.4-0.6H0V245.9z M90.6,206.3h37v8h-14.8v7.4h13.9v7.7h-13.9
	v8.6h16.3v8H90.6V206.3z M220.8,206.3l-11.4,39.6h-33.7l-12.9-39.6h23.5c2.7,10.9,4.6,20.2,5.8,27.9c1.2-7.7,2.5-14.5,3.8-20.4
	l1.4-7.4H220.8z M256.8,206.3h37v8H279v7.4h13.9v7.7H279v8.6h16.3v8h-38.5V206.3z M361.7,213.6c1,0.4,1.5,1.2,1.5,2.5v2.1
	c0,1.8-0.5,2.8-1.5,3.1c-1,0.3-2.8,0.5-5.4,0.5V213C358.9,213,360.7,213.2,361.7,213.6z M334,245.9h22.2V228c3.1,0,5.1,0.3,5.8,0.8
	c0.7,0.5,1.1,1.8,1.1,3.9v13.2h20.7v-10.4c0-3.2-0.2-5.2-0.6-5.9c-0.4-0.7-1.3-1.5-2.8-2.3c-1.5-0.8-4.5-1.5-8.9-2
	c4.9-0.2,8.1-0.9,9.8-1.9c1.7-1.1,2.5-3.1,2.5-6.2c0-3.4-1.2-5.8-3.5-7.4c-2.3-1.5-5.4-2.5-9.1-2.9c-3.7-0.4-10.9-0.6-21.4-0.6H334
	V245.9z M424.6,206.3h37v8h-14.8v7.4h13.9v7.7h-13.9v8.6h16.3v8h-38.5V206.3z M551.7,206.3v39.6H532l-11.5-18v18h-18.6v-39.6h18.7
	l12.4,17.9v-17.9H551.7z M620,213.4c0.9,0.2,1.5,0.6,1.7,1.1c0.3,0.5,0.4,1.6,0.4,3.5v15.5c0,2.7-0.4,4.3-1.1,4.9
	c-0.8,0.6-2.8,0.9-6.1,0.9V213C617.4,213,619.1,213.1,620,213.4z M592.7,245.9h28.1c5.3,0,9.3-0.1,12-0.4c2.6-0.3,4.9-0.7,6.7-1.4
	c1.8-0.7,3.1-1.6,3.8-2.8c0.7-1.2,1.1-3.6,1.1-7.1v-13.9c0-3.8-0.2-6.3-0.7-7.6c-0.5-1.3-1.7-2.4-3.7-3.5c-2-1-4.9-1.8-8.7-2.3
	c-3.8-0.5-11.1-0.7-21.8-0.7h-16.7V245.9z M323.2,3c31.9,0,61.1,17.5,76.1,45.6l2.6,1.6h4.8H637c-32.5,15.6-159.9,76.8-162.5,78.1
	l-1.7,0.8l-1.9,0l-69,0.1l-2.5,1.4l-2.7,4.3c-15.9,25.6-43.3,40.9-73.5,40.9c-31.7,0-60.8-17.3-75.9-45.2l-2.6-1.6h-5.2h-63.6h-1.9
	l-1.8-0.8c-22.1-9.8-25.5-11.3-26.1-11.5l-72-35L24.5,57.5L9.3,50.1H53h191.3l2.6-1.4l2.7-4.4C265.4,18.4,292.9,3,323.2,3 M323.2,0
	c-31.3,0-59.8,16-76.2,42.7c0,0-2.2,3.6-2.7,4.4H53H1.1c-0.6,0-1.1,0.5-1.1,1.1c0,0.7,0,0.7,6.8,4l16.3,7.9l49.6,24.1l72.1,35.1
	c0,0,26.1,11.5,26.1,11.5l2.1,0.9c0.1,0.1,0.3,0.1,0.5,0.1h2.3h63.6h5.2c15.6,28.9,45.7,46.8,78.6,46.8c31.2,0,59.6-15.8,76-42.4
	c0,0,1.9-3.1,2.7-4.3l69-0.1l2.3,0c0.2,0,0.3,0,0.4-0.1l2.1-0.9c0,0,170-81.7,170-81.7c0.5-0.2,0.7-0.7,0.6-1.3
	c-0.1-0.5-0.6-0.9-1.1-0.9H406.7h-4.8C386.4,18.1,356.3,0,323.2,0L323.2,0z M410.1,70.8h157.2l26.1-11.5H406.8h-6.1h-6.2
	c-11.8-27.7-39.2-47.2-71.2-47.2c-27.9,0-52.3,14.8-65.9,36.9h57.4c0,0,7.3,0,9.7,8.3c0.2,0.6,0.2,1.2,0.1,1.9c0,0.2,0,0.3,0,0.5
	c-0.2,1.9-0.6,3.9-1.2,5.8c0,0.1,0,0.1,0,0.2c-0.5,1.8-1.2,3.5-1.8,5c-1.3,3.3-2.6,5.7-2.6,5.7s2.8-2.3,7.1-5.6
	c4.4-3.4,10.5-7.7,16.9-11.5c3.7-2.2,7.5-4.2,11.2-5.8l0.7-0.3c19.3-9.1,24.9,0.2,24.9,0.2c1.3,1.8,2.1,3.8,2.6,5.9
	c0.8,3.6,0.4,7.5-0.8,11.5c-1.1,3.6-2.8,7.2-4.9,10.7c-0.3,0.6-0.8,1.2-1.2,1.8c-2.3,3.2-5.9,7.4-11.1,11.5
	c-6.2,4.9-14.5,9.8-25.1,12.8c-0.3,0.1-1.4,0.4-2.1,0.7c-0.3,0.1-0.5,0.3-0.5,0.4c-0.1,0.5,1.1,2.5,2.6,5.1c1.3,2.2,2,5,3.2,6
	c0.2,0.2,1.7,0,1.9,0c1.4,0.2,126.8,0,126.8,0l26.1-11.5h-86.9h-5.3h-6.6c1.1-4.4,1.8-8.9,2.2-13.5h6.2h5.4h107.7l26.1-11.5H411.9
	h-5.5h-6.1c-0.3-4.3-1-8.5-2-12.6h6.1H410.1z M387.8,130.1c0,0-47.6,0.1-51.9,0c-4.4-0.1-3.8-1.9-4.4-3.2c-0.2-0.5-0.5-0.9-1.3-2.5
	c-0.7-1.4-1.5-2.9-2.2-4.4c-0.6-1.1-1.1-2.1-1.5-3c-0.6-1.2-1.7-2.6-2.9-3.9c0,0-0.1-0.1-0.1-0.1c-1.6-1.7-3.6-3.4-5.6-4.5
	c-0.5-0.3-1-0.6-1.5-0.8c-3.9-1.7-6.7,0.5-7.2,0.2c-0.5-0.2,0.5-1.5,2.2-3.2c1.7-1.7,9-7,9-7s6.2,0.7,17.2-1.6
	c1.5-0.3,2.9-0.7,4.2-1.1c9.6-3,14.5-8.2,17.7-10.6c0.3-0.3,0.7-0.6,1.1-0.9c3-2.7,7-7.9,8.5-12.6c0.3-1,0.6-2,0.6-2.9
	c0.5-5.7-5.6-6.6-11.5-4c-3.5,1.6-8.3,4.3-12.6,6.9c-3,1.8-5.7,3.4-7.7,4.6c-2.6,1.5-6.8,4.6-11.3,8c-1,0.7-2,1.5-3,2.3c0,0,0,0,0,0
	c-2.9,2.2-5.8,4.4-8.4,6.2c-1.2,0.8-2.4,1.9-3.7,3c-4.6,4.1-9.6,9.5-13.2,13.5c-1.6,1.8-2.9,3.3-3.8,4.3c-1.3,1.5-3.5,4.3-5.7,7.2
	c-1.2,1.5-2.3,3.1-3.4,4.5c-2.1,2.9-3.8,5.1-3.8,5.1s-12.9,0-14.1,0s1.1-2.9,1.1-2.9l1.8-2.2l3.7-4.5l7.3-8.8c0,0,0.9-1.1,2.4-2.7
	c3-3.5,8.3-9.5,11.6-13.5c0.9-1.1,1.7-2,2.2-2.7c1.4-1.8,3.6-5.1,5.8-8.8c2.4-4.1,5-8.8,6.7-12.6c0.6-1.3,1.1-2.5,1.5-3.6
	c2.8-7.6-4.9-7.9-4.9-7.9h-54.5c0,0,0,0,0,0h-5.9h-6.7H53.1l26.1,11.5h157.1h6.3h5.7c-1,4.1-1.7,8.3-2,12.6h-5.8h-6H101l26.1,11.5
	h107.4h5.9h5.9c0.3,4.6,1,9.2,2.1,13.5h-6.2h-5.9h-86.4l26.1,11.5h63.6h6h6.7c11.8,27.5,39.2,46.8,71,46.8
	c27.8,0,52.1-14.7,65.8-36.7H387.8z"/>
</svg>
