<?xml version="1.0" encoding="utf-8"?>
<!-- Generator: Adobe Illustrator 18.0.0, SVG Export Plug-In . SVG Version: 6.00 Build 0)  -->
<!DOCTYPE svg PUBLIC "-//W3C//DTD SVG 1.1//EN" "http://www.w3.org/Graphics/SVG/1.1/DTD/svg11.dtd">
<svg version="1.1" id="Layer_1" xmlns="http://www.w3.org/2000/svg" xmlns:xlink="http://www.w3.org/1999/xlink" x="0px" y="0px"
	 viewBox="0 0 2304 749.2" enable-background="new 0 0 2304 749.2" xml:space="preserve">
<path fill="#FFFFFF" d="M582.3,6.6c0-5.9,0.7-6.6,6.6-6.6h121.4c5.9,0,6.6,0.7,6.6,6.6v313.7c0,99.7-95.8,149.6-185.7,149.6
	S345.4,420,345.4,320.3V6.6c0-5.9,0.7-6.6,6.6-6.6h121.4c5.9,0,6.6,0.7,6.6,6.6v276.3c0,39.4,26.2,55.8,51.2,55.8
	c25.6,0,51.2-16.4,51.2-55.8V6.6z M927.2,266.4c0-3.3,1.3-4.6,5.3-4.6c1.3,0,3.9,0.6,5.2,2.6l105.7,188.3c5.2,5.9,4.6,6.6,10.5,6.6
	h137.8c3.9,0,5.9,0,5.9-1.3c0-0.7-1.3-2.6-3.3-5.3l-138.5-238.2c-0.7-0.7-1.3-2-1.3-3.3c0-1.3,0.7-2.6,1.3-3.3L1176.6,6.6
	c1.3-2,2.6-3.3,2.6-4.6s-2-2-5.2-2h-138.5c-5.9,0-5.9,1.3-10.5,6.6L937,164.7c-1.3,2-3.9,3.3-5.9,3.3s-3.9-1.3-3.9-4.6V6.6
	c0-5.9-0.7-6.6-6.6-6.6H802.5c-5.9,0-6.6,0.7-6.6,6.6v446.3c0,5.9,0.7,6.6,6.6,6.6h118.1c5.9,0,6.6-0.7,6.6-6.6V266.4z
	 M1230.1,452.8c0,5.9,0.7,6.6,6.6,6.6h298.6c5.9,0,6.6-0.7,6.6-6.6V345.5c0-5.9-0.7-6.6-6.6-6.6h-164.1c-5.9,0-6.6-0.7-6.6-6.6
	v-39.7c0-5.9,0.6-6.6,6.6-6.6h154.2c5.9,0,6.6-0.6,6.6-6.6V189c0-5.9-0.7-6.6-6.6-6.6h-154.2c-5.9,0-6.6-0.7-6.6-6.6v-39.2
	c0-5.9,0.6-6.6,6.6-6.6H1532c5.9,0,6.6-0.7,6.6-6.6V6.6c0-5.9-0.6-6.6-6.6-6.6h-295.3c-5.9,0-6.6,0.7-6.6,6.6V452.8z M1624,452.8
	c0,5.9,0.7,6.6,6.6,6.6h282.2c5.9,0,6.6-0.7,6.6-6.6V344.5c0-5.9-0.6-6.6-6.6-6.6h-147.7c-5.9,0-6.6-0.7-6.6-6.6V6.6
	c0-5.9-0.6-6.6-6.6-6.6h-121.4c-5.9,0-6.6,0.7-6.6,6.6V452.8z M2017.9,452.8c0,5.9,0.7,6.6,6.6,6.6h121.4c5.9,0,6.6-0.7,6.6-6.6
	V273.7L2302.7,6.6c0.6-1.3,1.3-2.6,1.3-3.9c0-1.3-1.3-2.6-3.9-2.6h-130.6c-4.6,0-5.3,0.7-8.5,6.6l-70.9,132.6c-0.7,1.3-2,2-3.3,2
	c-1.3,0-2.6-0.7-3.3-2L2012.6,6.6c-2.6-5.2-3.9-6.6-8.5-6.6h-133.9c-2.6,0-3.9,1.3-3.9,2.6c0,1.3,0.7,2.6,1.3,3.9l150.3,267.1V452.8
	z M258.4,0h-1h-5.3H43.7c-1.2,0-3.6,0.4-4.2,2.4L0.2,124.3l0,0.3c-0.2,0.5-0.8,3.3,2,3.3h112.3h5.4h0.9c6,0,6.5,0,6.5,6v1.7V285
	c0,9.8-2,17.9-5.6,24.4c-9.4,15.2-26.9,21.1-42.8,21.1c-9.5,0-18.4-4.3-23.6-7.7l-1.3-0.9c-2.2-1.5-3,0-3.3,0.7L15,432.4
	c-1,3.2-0.3,4.6,0.2,5.1l5.6,4.2c13.9,9.9,45.8,28.1,91.5,28.1c52.8,0,93.7-16.8,118.5-50c21.1-28.3,33.6-68.3,33.6-119.1V6.7
	l0.1-1.2C264.3,0.6,263.9,0,258.4,0z M283.8,704.8c0-50.1-62.6-40.6-62.6-60.6c0-5.5,4.2-8.3,9.9-8.3c9.9,0,15.2,6.5,18.2,12.1
	c0.8,1.2,1.4,1.2,3.2,0.6l30.1-13.3c1.8-0.6,2.6-1.2,1.2-3.4c-8.7-17.4-27.3-31.3-54.8-31.3c-31.7,0-51.9,18.2-51.9,43
	c0,48.1,60.6,39.4,60.6,60.6c0,6.1-4.6,8.5-10.3,8.5c-9.9,0-15.2-6.9-19.4-14.1c-1-1.4-1.2-1.4-2.4-1.2l-33.1,14.5
	c-1.8,0.6-2.2,1.2-1,3.8c8.7,18.6,28.1,32.7,59,32.7C267.5,748.4,283.8,729,283.8,704.8z M305.9,743.1c0,1.8,0.2,2,2,2h91.9
	c1.8,0,2-0.2,2-2v-29.1c0-1.8-0.2-2-2-2h-50.5c-1.8,0-2-0.2-2-2v-16.2c0-1.8,0.2-2,2-2h47.5c1.8,0,2-0.2,2-2v-27.9c0-1.8-0.2-2-2-2
	h-47.5c-1.8,0-2-0.2-2-2v-19c0-1.8,0.2-2,2-2h49.5c1.8,0,2-0.2,2-2v-29.1c0-1.8-0.2-2-2-2h-90.9c-1.8,0-2,0.2-2,2V743.1z
	 M431.1,743.1c0,1.8,0.2,2,2,2H525c1.8,0,2-0.2,2-2v-29.1c0-1.8-0.2-2-2-2h-50.5c-1.8,0-2-0.2-2-2v-16.2c0-1.8,0.2-2,2-2H522
	c1.8,0,2-0.2,2-2v-27.9c0-1.8-0.2-2-2-2h-47.5c-1.8,0-2-0.2-2-2v-19c0-1.8,0.2-2,2-2H524c1.8,0,2-0.2,2-2v-29.1c0-1.8-0.2-2-2-2
	h-90.9c-1.8,0-2,0.2-2,2V743.1z M679.4,661.7c-1.8,0-2,0.2-2,2v27.1c0,1.8,0.2,2,2,2h13.5c1.8,0,2,0.2,2,2v16c0,2-4.2,2.4-10.1,2.4
	c-23.6,0-35.8-15.6-35.8-36.8c0-20.6,13.3-38.4,37.6-38.4c14.3,0,25.7,4.2,34.1,10.9c0.4,0.4,0.6,0.4,1,0.4s0.8-0.2,0.8-1.4v-37.2
	c0-1-0.4-1.4-1.6-2c-9.7-4.8-24-8.3-38.2-8.3c-45.7,0-75.8,35-75.8,73.9c0,42,28.9,73.9,76.4,73.9c18.4,0,35.6-3.6,45.3-8.5
	c1.2-0.6,1.6-1,1.6-2v-74.1c0-0.8-0.2-2-2-2H679.4z M801.8,702.7c1.2,0,2,0.6,3.4,2.6l28.1,37.8c1,1.6,1.4,2,3.2,2h42.6
	c1.2,0,1.8,0,1.8-0.6c0-0.2-0.2-0.8-0.6-1.4l-37.2-47.7c-0.2-0.4-0.4-0.8-0.4-1c0-0.4,0.2-0.8,0.8-1c14.3-6.5,27.5-19.6,27.5-41.2
	c0-34.3-24.4-48.5-54.6-48.5h-54.8c-1.8,0-2,0.2-2,2v137.4c0,1.8,0.2,2,2,2h36.4c1.8,0,2-0.2,2-2v-37.8
	C800.2,703.5,800.6,702.7,801.8,702.7z M813.1,636.1c12.5,0,17.6,7.7,17.6,18.6c0,11.5-6.7,18.6-17.6,18.6h-10.9c-1.8,0-2-0.2-2-2
	v-33.1c0-1.8,0.2-2,2-2H813.1z M900.6,743.1c0,1.8,0.2,2,2,2h91.9c1.8,0,2-0.2,2-2v-29.1c0-1.8-0.2-2-2-2H944c-1.8,0-2-0.2-2-2
	v-16.2c0-1.8,0.2-2,2-2h47.5c1.8,0,2-0.2,2-2v-27.9c0-1.8-0.2-2-2-2H944c-1.8,0-2-0.2-2-2v-19c0-1.8,0.2-2,2-2h49.5c1.8,0,2-0.2,2-2
	v-29.1c0-1.8-0.2-2-2-2h-90.9c-1.8,0-2,0.2-2,2V743.1z M1108.9,743.1c0.6,1.4,1,2,2.4,2h40.8c1,0,1.2-0.2,1.2-0.6
	c0-0.2-0.2-1-0.4-1.4l-66.9-141.4c-0.6-1.4-1.6-2-3.4-2s-2.8,0.6-3.4,2l-66.9,141.4c-0.2,0.4-0.4,1.2-0.4,1.4c0,0.4,0.2,0.6,1.2,0.6
	h40.2c1.4,0,1.8-0.6,2.4-2l5.9-13.5c0.8-1.8,1.6-2,2.6-2h36.4c1.2,0,1.6,0.2,2.4,2L1108.9,743.1z M1094.4,699.3
	c0,0.6-0.6,0.6-1.8,0.6h-20c-1.2,0-2,0-2-0.8l0.2-0.6l10.3-27.3c0.2-0.4,0.8-0.6,1.2-0.6s1,0.2,1.2,0.6l10.7,27.5
	C1094.4,699.1,1094.4,699.3,1094.4,699.3z M1150.4,637.1c0,1.8,0.2,2,2,2h26.9c1.8,0,2,0.2,2,2v102c0,1.8,0.2,2,2,2h37.4
	c1.8,0,2-0.2,2-2v-102c0-1.8,0.2-2,2-2h26.9c1.8,0,2-0.2,2-2v-31.3c0-1.8-0.2-2-2-2h-99.2c-1.8,0-2,0.2-2,2V637.1z M1442.1,704.8
	c0-50.1-62.6-40.6-62.6-60.6c0-5.5,4.2-8.3,9.9-8.3c9.9,0,15.2,6.5,18.2,12.1c0.8,1.2,1.4,1.2,3.2,0.6l30.1-13.3
	c1.8-0.6,2.6-1.2,1.2-3.4c-8.7-17.4-27.3-31.3-54.8-31.3c-31.7,0-51.9,18.2-51.9,43c0,48.1,60.6,39.4,60.6,60.6
	c0,6.1-4.6,8.5-10.3,8.5c-9.9,0-15.2-6.9-19.4-14.1c-1-1.4-1.2-1.4-2.4-1.2l-33.1,14.5c-1.8,0.6-2.2,1.2-1,3.8
	c8.7,18.6,28.1,32.7,59,32.7C1425.7,748.4,1442.1,729,1442.1,704.8z M1583.3,605.8c0-1.8-0.2-2-2-2h-37.4c-1.8,0-2,0.2-2,2v50.1
	c0,1.8-0.2,2-2,2h-28.3c-1.8,0-2-0.2-2-2v-50.1c0-1.8-0.2-2-2-2h-37.4c-1.8,0-2,0.2-2,2v137.4c0,1.8,0.2,2,2,2h37.4c1.8,0,2-0.2,2-2
	v-47.3c0-1.8,0.2-2,2-2h28.3c1.8,0,2,0.2,2,2v47.3c0,1.8,0.2,2,2,2h37.4c1.8,0,2-0.2,2-2V605.8z M1752.8,674.5
	c0-40.4-31.7-73.9-72.1-73.9s-72.1,33.5-72.1,73.9s31.7,73.9,72.1,73.9S1752.8,714.9,1752.8,674.5z M1650.9,674.5
	c0-18.2,11.5-32.7,29.7-32.7s29.7,14.5,29.7,32.7s-11.5,32.7-29.7,32.7S1650.9,692.6,1650.9,674.5z M1889.1,748.4
	c0.2,0.6,2.6,0.8,3,0.8c0.4,0,2.8-0.2,3-0.8l64.2-142.6c0.2-0.4,0.4-1.2,0.4-1.4c0-0.4-0.2-0.6-1.2-0.6h-39.2c-1.4,0-1.8,0.6-2.4,2
	l-25.5,60c-0.2,0.4-0.8,0.6-1.2,0.6c-0.4,0-1-0.2-1.2-0.6l-28.7-64c-0.6-1.4-1.6-2-3-2s-2.4,0.6-3,2l-28.7,64
	c-0.2,0.4-0.8,0.6-1.2,0.6s-1-0.2-1.2-0.6l-25.5-60c-0.6-1.4-1-2-2.4-2h-39.2c-1,0-1.2,0.2-1.2,0.6c0,0.2,0.2,1,0.4,1.4l64.2,142.6
	c0.2,0.6,2,0.8,3,0.8s2.8-0.2,3-0.8l30.5-68.7c0.2-0.4,0.8-0.6,1.2-0.6s1,0.2,1.2,0.6L1889.1,748.4z M2077,704.8
	c0-50.1-62.6-40.6-62.6-60.6c0-5.5,4.2-8.3,9.9-8.3c9.9,0,15.2,6.5,18.2,12.1c0.8,1.2,1.4,1.2,3.2,0.6l30.1-13.3
	c1.8-0.6,2.6-1.2,1.2-3.4c-8.7-17.4-27.3-31.3-54.8-31.3c-31.7,0-51.9,18.2-51.9,43c0,48.1,60.6,39.4,60.6,60.6
	c0,6.1-4.6,8.5-10.3,8.5c-9.9,0-15.2-6.9-19.4-14.1c-1-1.4-1.2-1.4-2.4-1.2l-33.1,14.5c-1.8,0.6-2.2,1.2-1,3.8
	c8.7,18.6,28.1,32.7,59,32.7C2060.6,748.4,2077,729,2077,704.8z M2118.6,747.4c10.1,0,18.6-8.9,18.6-19c0-9.9-7.9-18.8-18.6-18.8
	c-10.7,0-18.6,8.5-18.6,19C2100,739.7,2108.7,747.4,2118.6,747.4z"/>
</svg>
