<?xml version="1.0" encoding="utf-8"?>
<!-- Generator: Adobe Illustrator 18.0.0, SVG Export Plug-In . SVG Version: 6.00 Build 0)  -->
<!DOCTYPE svg PUBLIC "-//W3C//DTD SVG 1.1//EN" "http://www.w3.org/Graphics/SVG/1.1/DTD/svg11.dtd">
<svg version="1.1" id="Layer_1" xmlns="http://www.w3.org/2000/svg" xmlns:xlink="http://www.w3.org/1999/xlink" x="0px" y="0px"
	 viewBox="0 0 400 308.1" enable-background="new 0 0 400 308.1" xml:space="preserve">
<g>
	<path fill-rule="evenodd" clip-rule="evenodd" fill="#FFFFFF" d="M194.8,0.5c3.6-0.1,8.1-0.8,11.2,1c2.8,20.1-11.1,39.3-6.1,60.4
		c23.4,14.8,23.9-25.3,31.7-43.9c2.7-6.4,8.8-20.2,17.7-12.7c5.7,4.8,5.8,31.8,2.9,43.9c-0.3,1.5-1.8,1.6-2.6,3.5
		c-2.8,7.1-6.3,18-10.3,23.2c-2.8,3.6-14.7,14.1-19.5,16.3c-0.8,0.4-3.3-0.1-4.5,0.4c-3.3,1.2-16.4,3.1-21.2,1.1
		c-3-1.3-10.7-4.1-12.3-5.6c-6-5.6-8.1-39-5-54.6C180.2,17.1,187.5,9.8,194.8,0.5z"/>
	<path fill-rule="evenodd" clip-rule="evenodd" fill="#FFFFFF" d="M121.8,0c14.8,1.2,27.5,4.9,35.1,11.4c5.2,4.5,11,13.4,12.5,20.7
		c4.2,20.7-12.7,42.1-26.3,50.4c-2.8,1.7-5.3,3.9-7.2,4.6c-7.2,2.8-29.7,7.3-39.2,0.3c-4-3-8.3-14.5-8.5-22.6
		c-0.9-24.3,11.3-48.6,22.4-58.2C114,3.7,119.2,3.1,121.8,0z M130.1,69.2c8.9-5.5,14.9-17.2,12.6-32c-5.6-3.4-5.8-11.3-10.8-13.7
		c-15.3-7.3-26.8,24.8-24.7,40.7C108.8,75.8,119.7,75.6,130.1,69.2z"/>
	<path fill-rule="evenodd" clip-rule="evenodd" fill="#FFFFFF" d="M77.7,11.4c2.4,10,3.6,23.7,2.2,35.2c-1-0.1-0.8-1.8-1-2.9
		c-13.5,47.8-30,93-34,148.8c-8.1,0.8-11.8-3.6-17.7-5.3c-4.9-36.3,11.2-67.1,0.8-105.4c0.5-2.5-2.1-1.4-2.5-2.8
		c-1.3-13.7-10-25.8-16.4-34c-2.6-3.3-7-5.7-8.3-9.1c-3.9-9.9,6.6-26.3,15-17.8c2,2,0.6,2.8,1.9,5.1c1.9,3.1,5.8,5.8,7.5,8.4
		c4.1,6.3,4.9,13.7,9.1,18.8c1.9,10,3.8,20.1,11.7,23.1C52.2,55.7,56,36,56.9,13.9C61.5,9.1,71.7,8.3,77.7,11.4z"/>
	<path fill-rule="evenodd" clip-rule="evenodd" fill="#FFFFFF" d="M399.3,80.9c1.8,6.4-0.4,13.4-4,16.4c0.2,18.3-6.8,42.4-8.5,64.3
		c-0.3,3.2,0.9,6.7,0.6,9.8c-1.3,11.7-12.4,41.8-28.3,34.8c-5.3-8.1-13.4-14.2-18.3-24.3c-3.9-7.9-5.3-15.5-10.9-22.7
		c-15.5,9.4-13.8,36.5-26.3,49c-11.9-3.9-18.1-18.3-21.2-31.8c-4.6-20.2-3.1-48.7-7.1-70.6c-16,3.5-31.6,11.6-37.8,22.6
		c6.7,2.8,17.1-1.1,23.2,1.1c3,16.1-10.8,21.3-22.9,24.4c-1,2.8-1.6,6-1.7,9.7c11.3,9.4,25.5-5.3,38.3-1.6
		c-9.2,18.4-43.1,31.7-64,15.5c-2-19.2,1.2-39.1,1-62.2c4.5-4.5,5.9-12.2,10-17.1c3.7,2.1,7-1.6,11.3-2.1
		c11.9-1.4,26.9,3.8,36.8-1.7c2.1-6.5,12.9-8.5,20.3-4.9c8.4,20.2,1.9,54.7,11.5,73.6c9.1-9.2,14.9-31.4,36.4-27.9
		c2.5,11.1,10.2,17.1,16.8,24.3C367.3,131.6,360.5,79.4,399.3,80.9z"/>
	<path fill-rule="evenodd" clip-rule="evenodd" fill="#FFFFFF" d="M117.1,162.9c7.3,5.9,16.9,9.3,21.6,18.1
		c10-22.3,7.8-56.2,12.4-83.6c11.7-2.1,15,10.7,20.1,18.1c1.1,23.4-3.3,35.6-5.8,55.7c14.6-2.3,18.6-18.3,35.5-16.1
		c6.3,7.6-1.8,20.7-7.4,26.5c-3,3.1-7.8,4.6-13.3,7.2c-14.3,6.6-26,22.7-38.7,8.7c-5.6,16.1-15.4,28.2-29.6,36.2
		c-4.2,7.2-10.9,12-19,15.6c-5.9,6-7.7,20.2-19,17.1c-8.3-2.3-6.2-16.4-10.5-24.4c0.3-24.5,5.7-47.2,3.8-72.1
		c-0.9-11.5-5.9-23.1-4.7-31.3c0.5-3.7,3.6-4.7,5-7.7c2-4.1,2.3-8.1,4.9-12.1c2.3-3.6,4.6-6.5,6.4-9.9c5.3-3,9.1-7.4,14.7-10.2
		c8.5-0.8,15.6-0.1,21.8,1.6c4.8,6.2,10.4,15.1,12,25.1C129.8,141.3,123,153.1,117.1,162.9z M88.9,126.3
		c-0.7,13.2-5.9,25.9-3.3,39.8c11.2-7.2,21.9-24.7,15.2-41.7C96.5,124.7,91.2,124,88.9,126.3z M82,192.5
		c-2.7,11.7,2.5,21.5,2.5,32.9c17.9-1.3,25.2-18.4,27.3-36.8C103.3,183.7,93.6,193.3,82,192.5z"/>
	<path fill-rule="evenodd" clip-rule="evenodd" fill="#FFFFFF" d="M278.6,187.9c3.3,21.7-0.3,48.3-5.3,68.8
		c-9.8,0.3-13.3-4.5-17.3-9c8-20,0.2-43.7,9.2-61.6C268.5,183.8,275.5,186,278.6,187.9z"/>
	<path fill-rule="evenodd" clip-rule="evenodd" fill="#FFFFFF" d="M250,206.3c1.7,2.9,2,7.3,2,11.9c-10.4,4.2-25.3,4.2-37.2,6.8
		c-3.7,20.3,6.6,43.5,2.1,66.7c-3.1,1.3-9.5,1.5-12.7,0.5c-0.6-4.8-2.2-8.5-5.7-10.3c-4-16.9-1.5-35-2.3-54.7
		c-8.6-0.8-18.9,4.1-28.6-1c-1.9-3.7,0-8.1,1-11.3C192.5,207.5,221.8,205.6,250,206.3z"/>
	<path fill-rule="evenodd" clip-rule="evenodd" fill="#FFFFFF" d="M153.8,213.2c12.8,15.3,10.5,42.9,8,66.6c-0.2,2-1.5,4.7-1.4,6.8
		c0.4,7.5,6.4,13.9,1.1,20.2c-8.3,1.8-17.8,2.9-20.3-4.1c3.3-26.7-9.1-65,2-87.7C147.4,214.8,148.9,212.4,153.8,213.2z"/>
	<path fill-rule="evenodd" clip-rule="evenodd" fill="#FFFFFF" d="M271.7,266.3c6.9,16.5-9.3,27.4-28.4,23.1
		C237.3,271.8,253.7,257.8,271.7,266.3z"/>
</g>
</svg>
