<?xml version="1.0" encoding="utf-8"?>
<!-- Generator: Adobe Illustrator 18.0.0, SVG Export Plug-In . SVG Version: 6.00 Build 0)  -->
<!DOCTYPE svg PUBLIC "-//W3C//DTD SVG 1.1//EN" "http://www.w3.org/Graphics/SVG/1.1/DTD/svg11.dtd">
<svg version="1.1" id="Layer_1" xmlns="http://www.w3.org/2000/svg" xmlns:xlink="http://www.w3.org/1999/xlink" x="0px" y="0px"
	 viewBox="0 0 60 60" enable-background="new 0 0 60 60" xml:space="preserve">
<path fill="#FFFFFF" d="M60,30c0,16.6-13.4,30-30,30C13.4,60,0,46.6,0,30C0,13.4,13.4,0,30,0C46.6,0,60,13.4,60,30z M52.5,19
	c-1.5,0.6-3.2,1.1-4.9,1.3c1.8-1,3.1-2.7,3.7-4.7c-1.7,1-3.4,1.7-5.3,2.1C44.4,16,42.2,15,39.7,15c-4.7,0-8.5,3.8-8.5,8.5
	c0,0.6,0.1,1.3,0.2,1.9c-7.1-0.3-13.4-3.8-17.6-9c-0.7,1.3-1.1,2.8-1.1,4.3c0,3,1.5,5.6,3.8,7.1c-1.4,0-2.7-0.4-3.8-1v0.1
	c0,4.2,2.9,7.6,6.8,8.4c-0.7,0.2-1.5,0.3-2.2,0.3c-0.6,0-1.1-0.1-1.6-0.1c1,3.4,4.2,5.7,7.9,5.8c-2.9,2.3-6.5,3.9-10.6,3.9
	c-0.7,0-1.4-0.1-2-0.1c3.7,2.4,8.3,3.8,13.1,3.8c15.7,0,24.2-13,24.2-24.2c0-0.3,0-0.8,0-1.1C49.9,22.2,51.3,20.7,52.5,19z"/>
</svg>
